<?xml version="1.0"?>
<svg xmlns="http://www.w3.org/2000/svg" xmlns:xlink="http://www.w3.org/1999/xlink" xmlns:svgjs="http://svgjs.com/svgjs" version="1.1" width="512" height="512" x="0" y="0" viewBox="0 0 512 512" style="enable-background:new 0 0 512 512" xml:space="preserve" class=""><g><linearGradient xmlns="http://www.w3.org/2000/svg" id="a" gradientUnits="userSpaceOnUse" x1="0" x2="512" y1="256" y2="256"><stop stop-opacity="1" stop-color="#00f1ff" offset="0"/><stop stop-opacity="1" stop-color="#dd1484" offset="0"/><stop stop-opacity="1" stop-color="#00c0ff" offset="0"/><stop stop-opacity="1" stop-color="#c20b42" offset="0"/><stop stop-opacity="1" stop-color="#ff0f95" offset="0"/><stop stop-opacity="1" stop-color="#c20b42" offset="0"/><stop stop-opacity="1" stop-color="#ff0f95" offset="0"/><stop stop-opacity="1" stop-color="#db4e78" offset="0"/><stop stop-opacity="1" stop-color="#d21b52" offset="0.09845559845559845"/><stop stop-opacity="1" stop-color="#e70649" offset="0.5965250965250966"/><stop stop-opacity="1" stop-color="#ff0f95" offset="0.9671814671814671"/></linearGradient><path xmlns="http://www.w3.org/2000/svg" d="m512 256c0 141.386719-114.613281 256-256 256s-256-114.613281-256-256 114.613281-256 256-256 256 114.613281 256 256zm0 0" fill="url(#a)" data-original="url(#a)" style="" class=""/><g xmlns="http://www.w3.org/2000/svg" fill="#fff"><path d="m161.539062 171.679688h188.921876c8.28125 0 15-6.714844 15-15 0-8.285157-6.71875-15-15-15h-188.921876c-8.28125 0-15 6.714843-15 15 0 8.285156 6.71875 15 15 15zm0 0" fill="#ffffff" data-original="#ffffff" style="" class=""/><path d="m365.460938 212.242188c0-8.28125-6.71875-15-15-15h-188.921876c-8.28125 0-15 6.71875-15 15 0 8.285156 6.71875 15 15 15h188.921876c8.28125 0 15-6.714844 15-15zm0 0" fill="#ffffff" data-original="#ffffff" style="" class=""/><path d="m161.539062 252.808594c-8.28125 0-15 6.714844-15 15 0 8.28125 6.71875 15 15 15h63.898438c8.285156 0 15-6.71875 15-15 0-8.285156-6.714844-15-15-15zm0 0" fill="#ffffff" data-original="#ffffff" style="" class=""/><path d="m346.300781 285.628906c-1.746093-1.75-3.894531-3.039062-6.257812-3.757812l-54.679688-16.609375c-5.230469-1.585938-10.917969-.203125-14.835937 3.617187-3.914063 3.820313-5.4375 9.46875-3.980469 14.738282l15.53125 56.066406c.691406 2.492187 2.015625 4.765625 3.839844 6.59375l75.964843 76.105468c8.078126 8.082032 18.820313 12.527344 30.25 12.527344 11.425782 0 22.171876-4.445312 30.25-12.527344 16.683594-16.683593 16.683594-43.820312.011719-60.492187zm-43.5625 16.265625 24.984375 7.585938 50.363282 50.480469-18.078126 18.078124-50.070312-50.160156zm98.433594 99.277344c-4.984375 4.984375-13.09375 4.980469-18.066406.007813l-1.90625-1.90625 18.078125-18.078126 1.894531 1.898438c4.980469 4.984375 4.980469 13.09375 0 18.078125zm0 0" fill="#ffffff" data-original="#ffffff" style="" class=""/><path d="m378.242188 77.085938h-244.484376c-31.246093 0-56.671874 25.421874-56.671874 56.671874v244.480469c0 31.25 25.425781 56.675781 56.671874 56.675781h170.167969c8.28125 0 15-6.714843 15-15 0-8.285156-6.71875-15-15-15h-170.167969c-14.707031 0-26.671874-11.964843-26.671874-26.675781v-244.480469c0-14.707031 11.964843-26.671874 26.671874-26.671874h244.484376c14.707031 0 26.671874 11.964843 26.671874 26.671874v170.859376c0 8.285156 6.714844 15 15 15 8.285157 0 15-6.714844 15-15v-170.859376c0-31.25-25.425781-56.671874-56.671874-56.671874zm0 0" fill="#ffffff" data-original="#ffffff" style="" class=""/></g></g></svg>
