<?xml version="1.0"?>
<svg xmlns="http://www.w3.org/2000/svg" xmlns:xlink="http://www.w3.org/1999/xlink" xmlns:svgjs="http://svgjs.com/svgjs" version="1.1" width="512" height="512" x="0" y="0" viewBox="0 0 512 512" style="enable-background:new 0 0 512 512" xml:space="preserve" class=""><g><g xmlns="http://www.w3.org/2000/svg" fill="#b2c6eb"><path d="m453.30957 321.99707-15.1748-5.07227c1.75537-5.252 3.29834-10.64062 4.58642-16.01562l15.55957 3.72754c-1.39599 5.82715-3.06836 11.66797-4.97119 17.36035z" fill="#b2c6eb" data-original="#b2c6eb" style=""/><path d="m280.9502 462.51855-1.9004-15.88671a192.63315 192.63315 0 0 0 152.97754-113.835l14.66162 6.40624a208.69391 208.69391 0 0 1 -165.73876 123.31547z" fill="#b2c6eb" data-original="#b2c6eb" style=""/><path d="m69.27881 211.09082-15.55957-3.72754c1.396-5.82715 3.06836-11.668 4.97119-17.36035l15.1748 5.07227c-1.75537 5.25195-3.29834 10.64062-4.58642 16.01562z" fill="#b2c6eb" data-original="#b2c6eb" style=""/><path d="m79.97266 179.20312-14.66166-6.40624a208.69391 208.69391 0 0 1 165.7388-123.31543l1.9004 15.88671a192.63315 192.63315 0 0 0 -152.97754 113.83496z" fill="#b2c6eb" data-original="#b2c6eb" style=""/></g><path xmlns="http://www.w3.org/2000/svg" d="m24 384h136v72.002h-136z" fill="#313744" data-original="#548aff" style="" class=""/><path xmlns="http://www.w3.org/2000/svg" d="m359.54 298.76a17.40691 17.40691 0 0 1 16.1-10.76h32.36v-64h-32.36a17.40691 17.40691 0 0 1 -16.1-10.76 1.80117 1.80117 0 0 1 -.08008-.21 17.42208 17.42208 0 0 1 3.76-19l22.89-22.88013-45.26-45.25976-22.87992 22.88989a17.42208 17.42208 0 0 1 -19 3.76 1.80941 1.80941 0 0 1 -.21-.08008 17.407 17.407 0 0 1 -10.76-16.10006v-32.35986h-64v32.35986a17.407 17.407 0 0 1 -10.76 16.10014 1.80941 1.80941 0 0 1 -.21.08008 17.42208 17.42208 0 0 1 -19-3.76l-22.88-22.88989-45.26 45.25971 22.89 22.8801a17.42208 17.42208 0 0 1 3.76 19 1.80117 1.80117 0 0 1 -.08008.21 17.40691 17.40691 0 0 1 -16.09992 10.76h-32.36v64h32.36a17.40691 17.40691 0 0 1 16.1 10.76 1.80117 1.80117 0 0 1 .08008.21 17.42208 17.42208 0 0 1 -3.76 19l-22.89008 22.8801 45.26 45.25976 22.88-22.88986a17.42208 17.42208 0 0 1 19-3.76 1.80941 1.80941 0 0 1 .21.08008 17.4067 17.4067 0 0 1 10.76 16.10006v32.35986h64v-32.35986a17.4067 17.4067 0 0 1 10.76-16.10014 1.80941 1.80941 0 0 1 .21-.08008 17.42208 17.42208 0 0 1 19 3.76l22.88 22.88989 45.26-45.25976-22.89-22.88005a17.42208 17.42208 0 0 1 -3.76-19 1.80117 1.80117 0 0 1 .08-.21zm-103.54-82.76a40 40 0 1 1 -40 40 40.00166 40.00166 0 0 1 40-40z" fill="#323940" data-original="#ef5e3b" style="" class=""/><path xmlns="http://www.w3.org/2000/svg" d="m160 384 23.35983 6.67525a130.98592 130.98592 0 0 1 56.64147 33.33375l31.99606-.00657a16 16 0 0 1 16.00261 16 16 16 0 0 1 -15.9976 16h-.005l.00264.00262 47.99963-.002a15.99969 15.99969 0 0 1 16.00036 15.99966 15.9997 15.9997 0 0 1 -15.99969 15.9997h-80.90414a88 88 0 0 1 -73.22043-39.18639l-5.87574-8.81358z" fill="#ffceb6" data-original="#ffceb6" style="" class=""/><path xmlns="http://www.w3.org/2000/svg" d="m320 448.00048-25.377.00092a24.11154 24.11154 0 0 0 .84327-13.09582 23.20856 23.20856 0 0 0 -3.92013-8.85446 23.963 23.963 0 0 0 -19.54614-10.05112h-.00488l-28.73828.00585a139.33025 139.33025 0 0 0 -57.69922-33.02392l-15.66728-4.4765a8.00025 8.00025 0 0 0 -9.89023 5.49419 8.00025 8.00025 0 0 0 5.49452 9.89067l15.66749 4.47638a123.26179 123.26179 0 0 1 53.21288 31.32721 7.94623 7.94623 0 0 0 5.626 2.31246h.00195l31.71276-.00634a8.37907 8.37907 0 0 1 5.56689 1.99169 8.00031 8.00031 0 0 1 -5.27967 14.00831h-40.00293v16h32.00293v.00244l55.71429-.00195a8.189 8.189 0 0 1 8.26441 7.45236 8.00827 8.00827 0 0 1 -7.98163 8.54715h-80.9043a79.83746 79.83746 0 0 1 -66.56347-35.62452l-1.43811-2.157a8 8 0 0 0 -11.0942-2.2184 8 8 0 0 0 -2.21823 11.09408l1.43805 2.15683a95.80543 95.80543 0 0 0 79.87596 42.74901h80.35921c13.42682 0 24.769-10.98726 24.54159-24.41215a24.02806 24.02806 0 0 0 -23.9965-23.58737z" fill="#ffb089" data-original="#ffb089" style="" class=""/><path xmlns="http://www.w3.org/2000/svg" d="m359.46 298.97a17.42208 17.42208 0 0 0 3.76 19l22.89 22.88013-45.26 45.25976-22.88-22.88989a17.42208 17.42208 0 0 0 -19-3.76 1.80941 1.80941 0 0 0 -.21.08008 17.4067 17.4067 0 0 0 -10.76 16.10006v32.35986h-64v-32.35986a17.4067 17.4067 0 0 0 -10.76-16.10014 1.80941 1.80941 0 0 0 -.21-.08008 17.42208 17.42208 0 0 0 -19 3.76l-22.88 22.88989-45.26-45.25971 22.89-22.8801a17.42208 17.42208 0 0 0 3.76-19 1.80117 1.80117 0 0 0 -.08008-.21 17.40691 17.40691 0 0 0 -16.09992-10.76h-32.36v-32h80a72 72 0 1 0 72-72v-80h32v32.35986a17.407 17.407 0 0 0 10.76 16.10014 1.80941 1.80941 0 0 0 .21.08008 17.42208 17.42208 0 0 0 19-3.76l22.88-22.88989 45.26 45.25976-22.89 22.88005a17.42208 17.42208 0 0 0 -3.76 19 1.80117 1.80117 0 0 0 .08008.21 17.40691 17.40691 0 0 0 16.09992 10.76h32.36v64h-32.36a17.40691 17.40691 0 0 0 -16.1 10.76 1.80117 1.80117 0 0 0 -.08.21z" fill="#cf1c3e" data-original="#d14521" style="" class=""/><path xmlns="http://www.w3.org/2000/svg" d="m352 55.998h136v72.002h-136z" fill="#313744" data-original="#548aff" style="" class=""/><path xmlns="http://www.w3.org/2000/svg" d="m352 128-23.35983-6.67525a130.98592 130.98592 0 0 1 -56.64147-33.33375l-31.99606.00657a16 16 0 0 1 -16.00261-16 16 16 0 0 1 15.9976-16h.005l-.00263-.00263-47.99963.002a15.99969 15.99969 0 0 1 -16.00037-15.99965 15.9997 15.9997 0 0 1 15.99969-15.9997h80.90414a88 88 0 0 1 73.22043 39.18641l5.87574 8.81356z" fill="#ffceb6" data-original="#ffceb6" style="" class=""/><path xmlns="http://www.w3.org/2000/svg" d="m192 63.99952 25.377-.00092a24.11154 24.11154 0 0 0 -.84327 13.09582 23.20856 23.20856 0 0 0 3.92013 8.85446 23.963 23.963 0 0 0 19.54614 10.05112h.00488l28.73828-.00585a139.33025 139.33025 0 0 0 57.69922 33.02392l15.66728 4.4765a8.00025 8.00025 0 0 0 9.89023-5.49419 8.00025 8.00025 0 0 0 -5.49452-9.89067l-15.66749-4.47638a123.26179 123.26179 0 0 1 -53.21288-31.32721 7.94623 7.94623 0 0 0 -5.626-2.31246h-.00195l-31.71276.00634a8.37907 8.37907 0 0 1 -5.56689-1.99169 8.00031 8.00031 0 0 1 5.27967-14.00831h40.00293v-16h-32.00293v-.00244l-55.71429.002a8.189 8.189 0 0 1 -8.26441-7.45236 8.00827 8.00827 0 0 1 7.98163-8.5472h80.9043a79.83746 79.83746 0 0 1 66.56347 35.62452l1.43811 2.157a8 8 0 0 0 11.0942 2.21848 8 8 0 0 0 2.21823-11.09408l-1.43804-2.15692a95.80543 95.80543 0 0 0 -79.87597-42.749h-80.35921c-13.42682 0-24.769 10.98726-24.54159 24.41215a24.02806 24.02806 0 0 0 23.9965 23.58737z" fill="#ffb089" data-original="#ffb089" style="" class=""/></g></svg>
