<?xml version="1.0"?>
<svg xmlns="http://www.w3.org/2000/svg" xmlns:xlink="http://www.w3.org/1999/xlink" xmlns:svgjs="http://svgjs.com/svgjs" version="1.1" width="512" height="512" x="0" y="0" viewBox="0 0 128 128" style="enable-background:new 0 0 512 512" xml:space="preserve" class=""><g><path xmlns="http://www.w3.org/2000/svg" d="m6.5 6.5h115v97.308h-115z" fill="#f53575" data-original="#e4e4e4" style="" class=""/><path xmlns="http://www.w3.org/2000/svg" d="m6.5 6.5h115v14.141h-115z" fill="#6a434e" data-original="#30ade0" style="" class=""/><circle xmlns="http://www.w3.org/2000/svg" cx="82.958" cy="13.571" fill="#f53575" r="3.023" data-original="#e4e4e4" style="" class=""/><circle xmlns="http://www.w3.org/2000/svg" cx="94.792" cy="13.571" fill="#ffd169" r="3.023" data-original="#ffd169" style="" class=""/><circle xmlns="http://www.w3.org/2000/svg" cx="106.625" cy="13.571" fill="#e5634e" r="3.023" data-original="#e5634e" style="" class=""/><rect xmlns="http://www.w3.org/2000/svg" fill="#6a434e" height="71.25" rx="7.435" width="49.327" x="39.338" y="50.25" data-original="#30ade0" style="" class=""/><path xmlns="http://www.w3.org/2000/svg" d="m79.3 69.481c-.01-.053-.03-.1-.045-.153a1.026 1.026 0 0 0 -.144-.345c-.024-.043-.043-.088-.07-.129a1.757 1.757 0 0 0 -.486-.486c-.041-.027-.084-.045-.127-.069a1.706 1.706 0 0 0 -.174-.092 1.732 1.732 0 0 0 -.174-.054c-.051-.015-.1-.035-.152-.045a1.755 1.755 0 0 0 -.343-.035h-8.294a1.75 1.75 0 0 0 0 3.5h4.066l-21.186 21.186v-4.066a1.75 1.75 0 0 0 -3.5 0v8.291a1.759 1.759 0 0 0 .034.343c.01.052.03.1.045.151a1.025 1.025 0 0 0 .144.346c.024.044.043.089.071.131a1.757 1.757 0 0 0 .486.485c.042.028.088.047.131.071a1.728 1.728 0 0 0 .169.089 1.747 1.747 0 0 0 .179.056c.049.014.1.034.148.044a1.757 1.757 0 0 0 .343.035h8.291a1.75 1.75 0 1 0 0-3.5h-4.066l21.186-21.187v4.066a1.75 1.75 0 0 0 3.5 0v-8.29a1.758 1.758 0 0 0 -.032-.343z" fill="#f53575" data-original="#e4e4e4" style="" class=""/><path xmlns="http://www.w3.org/2000/svg" d="m88.665 57.68v.43h-49.33v-.43a7.437 7.437 0 0 1 7.44-7.43h34.46a7.434 7.434 0 0 1 7.43 7.43z" fill="#d92e6e" data-original="#278eb8" style="" class=""/><path xmlns="http://www.w3.org/2000/svg" d="m39.335 108.7h49.33v5.37a7.434 7.434 0 0 1 -7.43 7.43h-34.46a7.437 7.437 0 0 1 -7.44-7.43z" fill="#d92e6e" data-original="#278eb8" style="" class=""/><circle xmlns="http://www.w3.org/2000/svg" cx="64.002" cy="115.096" fill="#6a434e" r="3.098" transform="matrix(.782 -.623 .623 .782 -57.758 64.917)" data-original="#30ade0" style="" class=""/></g></svg>
